<?xml version="1.0" encoding="UTF-8"?><svg id="Layer_1" xmlns="http://www.w3.org/2000/svg" viewBox="0 0 829.89 180"><defs><style>.cls-1{font-family:Montserrat-Bold, Montserrat;font-size:115.62px;font-weight:700;letter-spacing:.2em;}.cls-1,.cls-2{fill:#1c75bc;}</style></defs><path class="cls-2" d="M62.56,160.7h101.09c21.48,0,38.95-17.47,38.95-38.95s-17.47-38.95-38.95-38.95h-13.28c-3.84,0-6.96,3.11-6.96,6.96s3.11,6.96,6.96,6.96h13.28c13.81,0,25.04,11.23,25.04,25.04s-11.23,25.04-25.04,25.04H62.56c-3.84,0-6.96,3.11-6.96,6.96s3.11,6.96,6.96,6.96Z"/><path class="cls-2" d="M62.57,83.72c-4,0-7.2,3.37-6.94,7.42.24,3.7,3.47,6.49,7.18,6.49h7.73c3.84,0,6.96-3.11,6.96-6.96h0c0-3.84-3.11-6.96-6.96-6.96h-7.97Z"/><path class="cls-2" d="M106.65,19.73h-44.54c-3.7,0-6.94,2.8-7.18,6.49-.26,4.05,2.95,7.42,6.94,7.42h44.31c13.67,0,25.18,10.77,25.5,24.44.33,14.08-11.03,25.64-25.03,25.64h-.29c-3.84,0-6.96,3.11-6.96,6.96h0c0,3.84,3.11,6.96,6.96,6.96h-.31c21.38,0,39.21-16.97,39.54-38.35.33-21.75-17.27-39.56-38.95-39.56Z"/><path class="cls-2" d="M149.46,115.36c-.92-.04-1.81.11-2.62.41-4.67,1.72-9.54,2.85-14.51,2.81l-4.76-.04c-.6,0-1.19-.02-1.79-.06-17.65-.97-31.87-15.4-32.28-33.08-.01-.45-.01-.89,0-1.34l.05-5.41c.04-5.14,1.36-10.14,3.37-14.87.39-.91.58-1.93.53-3-.16-3.18-2.6-5.89-5.75-6.37-4.08-.62-7.69,2.44-7.85,6.45-.04.92.11,1.81.41,2.62,1.72,4.67,2.85,9.54,2.81,14.52l-.04,4.76c-.09,9.99-4.02,19.45-10.55,27.01-1.87,2.16-3.2,4.8-3.8,7.73-.01.07-.03.14-.04.21-.08.43-.14.86-.19,1.3,0,.05-.02.1-.02.15,0,.06,0,.12-.01.18-.01.15-.02.3-.03.45,0,.14-.02.28-.03.43,0,.16,0,.32-.01.48,0,.14,0,.27,0,.4,0,.18,0,.37.02.55,0,.1,0,.21.01.31,0,.05,0,.09,0,.14,0,.07.02.14.02.2.03.36.07.73.12,1.08.02.14.04.29.07.43.06.35.13.69.21,1.03.03.14.06.28.1.42.1.38.21.76.34,1.13.04.1.07.21.11.31.15.41.31.81.48,1.2,0,.01.01.03.02.04,1.82,4.03,5.17,7.25,9.33,8.88.04.01.07.03.11.04.41.16.82.3,1.25.43.1.03.2.06.31.09.39.11.78.21,1.17.29.13.03.25.05.38.07.32.06.64.11.97.14.1.01.19.03.28.04,2.02.21,3.99.05,5.85-.4l.06-.02c.5-.12.99-.27,1.48-.44h0c1.91-.66,3.66-1.65,5.2-2.91,7.58-6.19,17.26-9.22,27.05-9.14l4.43.04c5.14.04,10.14,1.36,14.88,3.37.91.39,1.93.58,3.01.53,3.18-.16,5.89-2.6,6.37-5.75.62-4.08-2.44-7.68-6.45-7.85Z"/><text class="cls-1" transform="translate(250.68 130.02)"><tspan x="0" y="0">BIZINO</tspan></text></svg>